<?xml version="1.0" encoding="UTF-8"?>
<svg width="76px" height="69px" viewBox="0 0 76 69" version="1.1" xmlns="http://www.w3.org/2000/svg" xmlns:xlink="http://www.w3.org/1999/xlink">
    <!-- Generator: Sketch 52.2 (67145) - http://www.bohemiancoding.com/sketch -->
    <title>Inglish Media_Logo (2)</title>
    <desc>Created with Sketch.</desc>
    <g id="Page-1" stroke="none" stroke-width="1" fill="none" fill-rule="evenodd">
        <g id="landing-page" transform="translate(-35.000000, -41.000000)">
            <g id="Inglish-Media_Logo-(2)" transform="translate(35.000000, 41.000000)">
                <polygon id="Fill-1" fill="#5595C3" points="0 14.4453405 2.60152222 14.4453405 2.60152222 0.508187117 0 0.508187117"></polygon>
                <polyline id="Fill-2" fill="#5595C3" points="14.1989111 0.488291411 16.8204889 0.488291411 16.8204889 14.4453405 15.1919778 14.4453405 15.1919778 14.4652362 7.88394444 5.04779448 7.88394444 14.4453405 5.26257778 14.4453405 5.26257778 0.508187117 7.38741111 0.508187117 14.1989111 9.14927301 14.1989111 0.488291411"></polyline>
                <path d="M29.5502778,3.91289264 C28.6169556,3.01695092 27.2267889,2.51913497 26.0152222,2.51913497 C23.0364444,2.51913497 21.2293333,4.78893865 21.2293333,7.65603681 C21.2293333,9.94552454 22.5599667,12.3150184 26.0152222,12.3150184 C27.1075111,12.3150184 28.0606778,12.0760583 29.1529667,11.2000123 L29.1529667,8.73103988 L25.5982778,8.73103988 L25.5982778,6.38165337 L31.5560444,6.38165337 L31.5560444,12.2551196 C30.1857222,13.8281503 28.4579889,14.7638834 26.0152222,14.7638834 C20.7925444,14.7638834 18.6675,11.3193865 18.6675,7.65603681 C18.6675,3.73361963 21.1102667,0.109849693 26.0152222,0.109849693 C27.8820778,0.109849693 29.7489333,0.826730061 31.1785778,2.24038344 L29.5502778,3.91289264" id="Fill-3" fill="#5595C3"></path>
                <polyline id="Fill-4" fill="#5595C3" points="36.3220889 0.508187117 36.3220889 12.0161595 43.4713667 12.0161595 43.4713667 14.4453405 33.7007222 14.4453405 33.7007222 0.508187117 36.3220889 0.508187117"></polyline>
                <polygon id="Fill-5" fill="#5595C3" points="45.3380111 14.4453405 47.9395333 14.4453405 47.9395333 0.508187117 45.3380111 0.508187117"></polygon>
                <path d="M59.3779556,3.87288957 C58.9014778,3.07663804 57.5906889,2.31996626 56.0814556,2.31996626 C54.1354333,2.31996626 53.2019,3.13632515 53.2019,4.17153681 C53.2019,5.38623313 54.6317556,5.72467178 56.3001667,5.92384049 C59.1991444,6.28217485 61.9001,7.03863497 61.9001,10.3637577 C61.9001,13.469816 59.1596667,14.8036748 56.0616111,14.8036748 C53.2219556,14.8036748 51.0373778,13.9276288 50.0046222,11.3790736 L52.1892,10.2441718 C52.8048,11.777411 54.4132556,12.4542883 56.1013,12.4542883 C57.7498667,12.4542883 59.2987889,11.8768896 59.2987889,10.3637577 C59.2987889,9.04958282 57.9280444,8.51197546 56.0814556,8.31280675 C53.2415889,7.97457975 50.6204333,7.21790798 50.6204333,4.09195399 C50.6204333,1.22506748 53.4404556,0.0501625767 56.0018667,0.0302668712 C58.1666,0.0302668712 60.4107111,0.647668712 61.4633111,2.7978865 L59.3779556,3.87288957" id="Fill-6" fill="#5595C3"></path>
                <polyline id="Fill-7" fill="#5595C3" points="73.3986889 14.4652362 73.3986889 8.83073006 66.5671333 8.83073006 66.5671333 14.4652362 63.9457667 14.4652362 63.9457667 0.528082822 66.5671333 0.528082822 66.5671333 6.40154908 73.3986889 6.40154908 73.3986889 0.528082822 76 0.528082822 76 14.4652362 73.3986889 14.4652362"></polyline>
                <path d="M44.5493,68.7811472 L44.5493,65.4636442 C44.5493,64.6470736 44.1232778,63.9056411 43.2834778,63.9056411 C42.4561333,63.9056411 41.9674111,64.6470736 41.9674111,65.4636442 L41.9674111,68.7811472 L40.4383333,68.7811472 L40.4383333,62.5734755 L41.8546778,62.5734755 L41.9674111,63.3273957 C42.2933667,62.6989877 43.0077667,62.472727 43.5969778,62.472727 C44.3365,62.472727 45.0760222,62.7745491 45.4268889,63.6290061 C45.9783111,62.7491503 46.6927111,62.4979141 47.4949333,62.4979141 C49.2496889,62.4979141 50.1146111,63.5788436 50.1146111,65.4384571 L50.1146111,68.7811472 L48.5853222,68.7811472 L48.5853222,65.4384571 C48.5853222,64.6214632 48.2469111,63.9306166 47.4195667,63.9306166 C46.5924333,63.9306166 46.0788,64.6470736 46.0788,65.4636442 L46.0788,68.7811472 L44.5493,68.7811472" id="Fill-8" fill="#5595C3"></path>
                <path d="M56.3324667,64.9609601 C56.2319778,64.1566656 55.6056111,63.7545184 54.7280222,63.7545184 C53.9006778,63.7545184 53.2238556,64.1566656 52.9983889,64.9609601 L56.3324667,64.9609601 Z M52.9732667,66.2300521 C53.0735444,66.9966718 53.7379111,67.5495184 54.8156333,67.5495184 C55.3797222,67.5495184 56.1192444,67.3361687 56.4703222,66.9714847 L57.4477667,67.9391779 C56.7960667,68.6177485 55.7308,68.944546 54.7907222,68.944546 C52.6599778,68.944546 51.3939444,67.6250798 51.3939444,65.6395307 C51.3939444,63.7545184 52.6724333,62.3973773 54.6779889,62.3973773 C56.7460333,62.3973773 58.0369778,63.6791687 57.7986333,66.2300521 L52.9732667,66.2300521 Z" id="Fill-9" fill="#5595C3"></path>
                <path d="M60.2188111,65.6772055 C60.2188111,66.7579233 60.9957,67.4993558 61.9735667,67.4993558 C62.9385556,67.4993558 63.7656889,66.7958098 63.7656889,65.6772055 C63.7656889,64.5964877 62.9385556,63.8677546 61.9735667,63.8677546 C60.9957,63.8677546 60.2188111,64.5588129 60.2188111,65.6772055 Z M65.3952556,59.9974049 L65.3952556,68.7811472 L63.9662444,68.7811472 L63.8659667,67.9266902 C63.3899111,68.6681227 62.6252667,68.9193589 61.8730778,68.9193589 C60.0558333,68.9193589 58.6895222,67.7129172 58.6895222,65.6772055 C58.6895222,63.5409571 60.0307111,62.4350521 61.8355,62.4350521 C62.4872,62.4350521 63.5026444,62.7870368 63.8659667,63.4279325 L63.8659667,59.9974049 L65.3952556,59.9974049 Z" id="Fill-10" fill="#5595C3"></path>
                <path d="M66.7244111,68.7811472 L68.2539111,68.7811472 L68.2539111,62.5607761 L66.7244111,62.5607761 L66.7244111,68.7811472 Z M68.3915556,60.8391626 C68.3915556,62.0331166 66.5867667,62.0331166 66.5867667,60.8391626 C66.5867667,59.6454202 68.3915556,59.6454202 68.3915556,60.8391626 Z" id="Fill-11" fill="#5595C3"></path>
                <path d="M70.8233444,65.6772055 C70.8233444,66.8586718 71.6382333,67.5622178 72.6532556,67.5622178 C75.0599222,67.5622178 75.0599222,63.8048926 72.6532556,63.8048926 C71.6382333,63.8048926 70.8233444,64.4959509 70.8233444,65.6772055 Z M74.5336222,62.5859632 L76,62.5859632 L76,68.7811472 L74.5587444,68.7811472 L74.4831667,67.876316 C74.1323,68.6050491 73.1673111,68.9572454 72.4780333,68.9695215 C70.6479111,68.9822209 69.2942667,67.8511288 69.2942667,65.6772055 C69.2942667,63.5409571 70.7106111,62.4227761 72.5156111,62.4350521 C73.3427444,62.4350521 74.1323,62.8247117 74.4831667,63.4404202 L74.5336222,62.5859632 Z" id="Fill-12" fill="#5595C3"></path>
                <polygon id="Fill-13" fill="#9F649B" points="10 42.446727 30.2510444 42.446727 30.2510444 32 10 32"></polygon>
                <path d="M30.3940889,32.0513466 L40.5196111,32.0513466 L40.5196111,16.9714601 L30.3940889,16.9714601 L30.3940889,32.0513466 Z M0.0177333333,32.0513466 L10.1430444,32.0513466 L10.1430444,16.9714601 L0.0177333333,16.9714601 L0.0177333333,32.0513466 Z" id="Fill-14" fill="#5595C3"></path>
                <polygon id="Fill-15" fill="#37488B" points="10.1430444 32.0513466 30.3940889 32.0513466 30.3940889 16.9714601 10.1430444 16.9714601"></polygon>
                <polyline id="Fill-16" fill="#F2BB38" points="40.5018778 57.0796748 0 57.0796748 0 42 10.1253111 42 10.1253111 57.0796748 30.3763556 57.0796748 30.3763556 42 40.5018778 42 40.5018778 57.0796748"></polyline>
                <polygon id="Fill-17" fill="#A74B2D" points="10.1430444 57.5777485 30.3940889 57.5777485 30.3940889 42.4980736 10.1430444 42.4980736"></polygon>
                <polyline id="Fill-18" fill="#D76C6B" points="41 57.6062883 41 17 58.6993444 37.3031442 41 57.6062883"></polyline>
                <polyline id="Fill-19" fill="#5595C3" points="75.9183 57.5777485 40.5196111 57.5777485 75.9183 57.5777485 58.2189556 37.2746043 75.9183 16.9714601 75.9183 57.5777485"></polyline>
                <polyline id="Fill-20" fill="#37435E" points="75.9183 57.5777485 40.5196111 57.5777485 58.2189556 37.2746043 75.9183 57.5777485"></polyline>
            </g>
        </g>
    </g>
</svg>